HIERARCHY
ROOT Hips
{
	OFFSET 0.00000 0.00000 0.00000
	CHANNELS 6 Xposition Yposition Zposition Zrotation Yrotation Xrotation 
	JOINT LHipJoint
	{
		OFFSET 0 0 0
		CHANNELS 3 Zrotation Yrotation Xrotation
		JOINT LeftUpLeg
		{
			OFFSET 1.62067 -1.77917 0.70989
			CHANNELS 3 Zrotation Yrotation Xrotation
			JOINT LeftLeg
			{
				OFFSET 2.34532 -6.44371 0.00000
				CHANNELS 3 Zrotation Yrotation Xrotation
				JOINT LeftFoot
				{
					OFFSET 2.74224 -7.53425 0.00000
					CHANNELS 3 Zrotation Yrotation Xrotation
					JOINT LeftToeBase
					{
						OFFSET 0.17032 -0.46794 2.08086
						CHANNELS 3 Zrotation Yrotation Xrotation
						End Site
						{
							OFFSET 0.00000 -0.00000 1.07476
						}
					}
				}
			}
		}
	}
	JOINT RHipJoint
	{
		OFFSET 0 0 0
		CHANNELS 3 Zrotation Yrotation Xrotation
		JOINT RightUpLeg
		{
			OFFSET -1.55811 -1.77917 0.70989
			CHANNELS 3 Zrotation Yrotation Xrotation
			JOINT RightLeg
			{
				OFFSET -2.33243 -6.40830 0.00000
				CHANNELS 3 Zrotation Yrotation Xrotation
				JOINT RightFoot
				{
					OFFSET -2.78798 -7.65993 0.00000
					CHANNELS 3 Zrotation Yrotation Xrotation
					JOINT RightToeBase
					{
						OFFSET -0.22707 -0.62388 2.04059
						CHANNELS 3 Zrotation Yrotation Xrotation
						End Site
						{
							OFFSET -0.00000 -0.00000 1.07030
						}
					}
				}
			}
		}
	}
	JOINT LowerBack
	{
		OFFSET 0 0 0
		CHANNELS 3 Zrotation Yrotation Xrotation
		JOINT Spine
		{
			OFFSET 0.02203 1.91565 0.07161
			CHANNELS 3 Zrotation Yrotation Xrotation
			JOINT Spine1
			{
				OFFSET 0.01740 1.90525 0.11636
				CHANNELS 3 Zrotation Yrotation Xrotation
				JOINT Neck
				{
					OFFSET 0 0 0
					CHANNELS 3 Zrotation Yrotation Xrotation
					JOINT Neck1
					{
						OFFSET -0.10841 1.83566 0.05067
						CHANNELS 3 Zrotation Yrotation Xrotation
						JOINT Head
						{
							OFFSET 0.06601 1.74760 -0.50505
							CHANNELS 3 Zrotation Yrotation Xrotation
							End Site
							{
								OFFSET 0.03102 1.85215 -0.17697
							}
						}
					}
				}
				JOINT LeftShoulder
				{
					OFFSET 0 0 0
					CHANNELS 3 Zrotation Yrotation Xrotation
					JOINT LeftArm
					{
						OFFSET 2.87059 1.35470 0.16111
						CHANNELS 3 Zrotation Yrotation Xrotation
						JOINT LeftForeArm
						{
							OFFSET 5.43592 -0.00000 0.00000
							CHANNELS 3 Zrotation Yrotation Xrotation
							JOINT LeftHand
							{
								OFFSET 3.25460 -0.00000 0.00000
								CHANNELS 3 Zrotation Yrotation Xrotation
								JOINT LeftFingerBase
								{
									OFFSET 0 0 0
									CHANNELS 3 Zrotation Yrotation Xrotation
									JOINT LeftHandIndex1
									{
										OFFSET 0.49824 -0.00000 0.00000
										CHANNELS 3 Zrotation Yrotation Xrotation
										End Site
										{
											OFFSET 0.40170 -0.00000 0.00000
										}
									}
								}
								JOINT LThumb
								{
									OFFSET 0 0 0
									CHANNELS 3 Zrotation Yrotation Xrotation
									End Site
									{
										OFFSET 0.40783 -0.00000 0.40783
									}
								}
							}
						}
					}
				}
				JOINT RightShoulder
				{
					OFFSET 0 0 0
					CHANNELS 3 Zrotation Yrotation Xrotation
					JOINT RightArm
					{
						OFFSET -2.86643 1.23488 0.45957
						CHANNELS 3 Zrotation Yrotation Xrotation
						JOINT RightForeArm
						{
							OFFSET -5.33830 -0.00000 0.00000
							CHANNELS 3 Zrotation Yrotation Xrotation
							JOINT RightHand
							{
								OFFSET -3.23148 -0.00000 0.00000
								CHANNELS 3 Zrotation Yrotation Xrotation
								JOINT RightFingerBase
								{
									OFFSET 0 0 0
									CHANNELS 3 Zrotation Yrotation Xrotation
									JOINT RightHandIndex1
									{
										OFFSET -0.46364 -0.00000 0.00000
										CHANNELS 3 Zrotation Yrotation Xrotation
										End Site
										{
											OFFSET -0.37380 -0.00000 0.00000
										}
									}
								}
								JOINT RThumb
								{
									OFFSET 0 0 0
									CHANNELS 3 Zrotation Yrotation Xrotation
									End Site
									{
										OFFSET -0.37951 -0.00000 0.37951
									}
								}
							}
						}
					}
				}
			}
		}
	}
}
MOTION
Frames: 9
Frame Time: 0.222222
0.00 0.00 0.00 0 0 0 0 0 0 -21 0 0 0 0 0 0 0 0 0 0 0 0 0 0 21 0 0 0 0 0 0 0 0 0 0 0 0 0 0 0 0 0 0 0 0 0 0 -16 0 0 21 0 0 11 0 0 0 -8 0 0 0 0 0 0 0 0 0 0 0 0 0 0 0 0 0 0 0 0 8 0 0 0 0 0 0 0 0 0 0 0 0 0 0 0 0 0
0.00 0.00 0.00 -5.4695 -8.2929 18.0460 0.0000 0.0000 0.0000 -19.6236 -10.2418 -24.7917 1.8153 8.4703 24.1520 0.5929 4.0859 -16.6065 0.3822 3.9704 10.9933 0.0000 0.0000 0.0000 1.8375 11.2798 -7.2374 -1.0730 -6.5848 18.4909 -0.2459 -17.3194 14.4102 -3.0803 10.8239 -31.6882 6.5805 -0.8858 -5.1022 2.9332 -1.1065 -9.7324 -0.5574 -0.9240 -7.4618 4.4527 7.4789 -10.0818 2.5820 8.9854 32.0291 1.4143 4.8525 12.3299 -0.0000 0.0000 0.0000 34.8496 -8.7086 -33.8458 17.0352 -26.9042 -4.1033 -0.0000 0.0000 -36.0179 27.2145 -17.0982 -8.5977 -7.1250 0.0000 -0.0000 -0.4488 10.9000 0.3559 -0.0000 0.0000 0.0000 -6.6100 -9.6582 -20.5010 -133.9536 51.2709 -96.9478 0.0000 -0.0000 -54.5843 -5.3897 -45.0391 3.8193 7.1250 -0.0000 -0.0000 48.7386 -69.4225 -30.9603
0.00 0.00 0.00 -7.4906 -5.9992 14.9677 0.0000 0.0000 0.0000 -17.8936 -10.8456 -27.0094 3.1056 10.8640 31.8226 0.9055 2.2055 -18.9007 0.5465 4.7360 13.1571 0.0000 0.0000 0.0000 3.6341 15.9677 -14.2445 -3.7394 -11.8053 35.0466 -0.8371 -12.3094 17.2843 -2.1281 9.1279 -26.1962 5.7417 -1.7059 -2.6261 2.8700 -2.1789 -5.9233 -0.1930 -1.2813 -4.7796 0.4110 3.0021 -12.9712 1.9700 3.4981 39.4367 1.3693 1.7250 16.2338 0.0000 -0.0000 0.0000 26.4756 -11.2662 -25.8350 17.7862 -27.8825 -4.4488 -0.0000 0.0000 -34.7927 26.4233 -18.0353 -8.7461 -7.1250 0.0000 -0.0000 -1.0626 10.0020 0.8621 0.0000 -0.0000 0.0000 0.1721 -1.7163 -11.8416 -125.3165 54.7182 -90.0426 0.0000 -0.0000 -48.7268 -4.5988 -43.9861 3.1973 7.1250 -0.0000 -0.0000 47.3430 -68.4881 -29.0139
0.00 0.00 0.00 -7.8429 -7.0364 14.2837 0.0000 0.0000 0.0000 -18.2727 -9.4540 -28.8529 3.7271 11.7881 34.9866 1.0654 0.7474 -19.7916 0.6380 5.1104 14.2238 0.0000 0.0000 0.0000 3.6697 18.2216 -24.7534 -7.4894 -15.7305 50.7019 -0.4984 -15.4136 15.5723 -0.0634 1.6251 -4.4708 5.0670 -1.7207 -0.2136 2.7412 -2.1080 -4.1898 0.0774 -1.1849 -4.2947 -1.6081 1.1571 -12.7296 1.3530 1.4752 41.2290 1.1367 0.4415 17.1656 0.0000 -0.0000 0.0000 15.3148 -10.7018 -19.7491 17.8091 -27.9121 -4.4595 -0.0000 0.0000 -32.8318 27.9130 -18.3162 -9.4521 -7.1250 0.0000 -0.0000 -0.1241 9.4431 0.1021 0.0000 -0.0000 0.0000 10.2652 -1.1505 -2.2031 -120.2286 56.2487 -85.8490 0.0000 -0.0000 -43.0591 -2.9804 -41.8650 1.9901 7.1250 -0.0000 -0.0000 45.0397 -66.5540 -25.5117
0.00 0.00 0.00 -7.7551 -7.8798 13.8788 0.0000 0.0000 0.0000 -18.5292 -8.8355 -29.5292 3.9563 12.1021 36.0940 1.0894 0.8525 -20.0506 0.6039 4.9745 13.8358 0.0000 0.0000 0.0000 4.5741 15.7400 -35.1856 -12.1824 -18.4667 66.5659 -0.6194 -17.3284 17.4401 -0.3093 3.5752 -9.8845 4.3178 -1.7071 1.1373 2.5904 -2.0636 -3.2367 0.3550 -1.1236 -4.0379 -1.3295 0.9478 -12.8887 0.6284 1.3507 41.1916 0.7344 0.3274 17.2033 0.0000 0.0000 0.0000 12.2342 -9.9251 -18.5091 17.8928 -28.0197 -4.4988 -0.0000 0.0000 -32.8804 25.6970 -18.6824 -8.7626 -7.1250 0.0000 -0.0000 -1.6004 9.4175 1.3175 0.0000 0.0000 0.0000 14.2194 -1.4670 0.3153 -115.2935 57.4390 -81.7165 0.0000 -0.0000 -41.0125 -2.6761 -41.9452 1.7895 7.1250 -0.0000 -0.0000 45.4645 -66.5182 -25.7586
0.00 0.00 0.00 -7.9844 -9.5954 13.2018 0.0000 0.0000 0.0000 -18.3080 -9.6664 -29.7773 4.3219 12.5769 37.8045 1.0833 3.0103 -20.9604 0.6929 5.3213 14.8272 0.0000 0.0000 0.0000 5.2405 17.3393 -46.9889 -17.9756 -19.9015 84.0718 -2.0059 -13.4565 25.7461 -0.3333 3.7101 -10.2626 4.1080 -1.3593 3.0930 2.5873 -1.4966 -2.9102 0.4868 -0.8389 -4.7874 -1.6312 0.9112 -10.7379 0.1809 1.4911 40.8255 0.5878 0.2804 16.4538 -0.0000 -0.0000 0.0000 7.6974 -8.9389 -14.9693 18.4161 -28.6866 -4.7473 -0.0000 0.0000 -32.6544 26.2253 -18.9955 -9.1093 -7.1250 0.0000 -0.0000 -1.2907 8.9903 1.0734 -0.0000 -0.0000 0.0000 18.1323 -3.4875 4.9988 -109.3977 58.5294 -76.7160 0.0000 -0.0000 -39.5435 -4.2479 -42.1920 2.8558 7.1250 -0.0000 -0.0000 44.3831 -67.1652 -25.6689
0.00 0.00 0.00 -6.9789 -10.9929 12.2874 0.0000 0.0000 0.0000 -19.9500 -9.3639 -28.8205 4.0759 12.2607 36.6606 0.8645 4.9277 -20.0188 0.6130 5.0111 13.9401 0.0000 0.0000 0.0000 3.5751 20.7694 -63.4991 -23.9692 -19.6180 101.6765 -4.6795 -12.0329 39.4286 -0.1211 2.2435 -6.1790 4.0619 -1.1699 5.7445 1.9416 -1.1897 -0.9323 -0.1575 -0.6656 -4.2334 -1.4979 0.7411 -12.6852 -0.3518 1.4611 40.6138 0.3353 0.2150 16.8414 -0.0000 -0.0000 0.0000 0.4664 -6.6630 -11.4517 19.0093 -29.4302 -5.0354 -0.0000 0.0000 -31.9954 24.0011 -20.0504 -8.6794 -7.1250 0.0000 -0.0000 -2.8287 8.2243 2.3980 -0.0000 -0.0000 0.0000 26.6893 -6.2882 6.7686 -96.4311 59.8431 -65.5665 0.0000 -0.0000 -34.0472 -6.6146 -42.0097 4.4377 7.1250 -0.0000 -0.0000 41.7592 -67.7648 -24.4760
0.00 0.00 0.00 -6.7463 -11.6980 11.5395 0.0000 0.0000 0.0000 -20.5736 -9.4721 -28.3039 4.0689 12.2515 36.6276 0.7893 6.0514 -20.0456 0.5275 4.6542 12.9250 0.0000 0.0000 0.0000 1.6557 24.2739 -75.4503 -26.6627 -18.9006 109.8302 -5.9337 -12.2468 44.7526 -0.1237 2.2673 -6.2448 4.3851 -1.1655 7.7852 1.9952 -1.0855 0.3810 -0.2724 -0.6028 -4.0172 -1.7890 0.6899 -13.6060 -0.5783 1.5905 40.6117 0.3147 0.1899 17.0785 0.0000 -0.0000 0.0000 -6.5273 -5.4887 -9.6698 18.4994 -28.7919 -4.7873 -0.0000 0.0000 -30.1723 23.1362 -21.4333 -8.8744 -7.1250 0.0000 -0.0000 -3.5139 6.8984 3.0724 0.0000 -0.0000 0.0000 31.8992 -7.2350 7.8480 -77.7316 59.4236 -49.3959 0.0000 -0.0000 -27.2886 -8.2570 -43.6072 5.7157 7.1250 -0.0000 -0.0000 43.1043 -69.4158 -26.8945
0.00 0.00 0.00 -6.5997 -9.7458 9.9651 0.0000 0.0000 0.0000 -21.1494 -5.3453 -28.4972 4.0165 12.1824 36.3802 0.9483 0.3063 -18.5214 0.6112 5.0039 13.9197 0.0000 0.0000 0.0000 0.4103 22.0423 -90.2107 -28.9372 -17.9657 117.0146 -7.1117 -11.5242 49.4052 -0.0929 1.9662 -5.4121 4.4654 -1.4619 10.4571 2.0864 -1.3550 1.7134 -0.1506 -0.7234 -4.1276 -2.5383 -0.0713 -12.4223 0.0476 0.3641 40.5234 0.5135 -0.3301 16.7328 -0.0000 0.0000 0.0000 -17.2810 -3.0852 -3.4559 19.3323 -29.8295 -5.1951 -0.0000 0.0000 -30.2272 25.2062 -21.8836 -9.9507 -7.1250 0.0000 -0.0000 -2.2570 6.0573 2.0078 -0.0000 0.0000 0.0000 38.3502 -11.5095 8.5004 -49.1850 52.6615 -25.5247 0.0000 -0.0000 -14.6716 -16.5941 -48.6912 12.6175 7.1250 -0.0000 -0.0000 48.2375 -75.6565 -36.4970
